<?xml version="1.0" standalone="no"?>
<!DOCTYPE svg PUBLIC "-//W3C//DTD SVG 20010904//EN"
 "http://www.w3.org/TR/2001/REC-SVG-20010904/DTD/svg10.dtd">
<svg version="1.0" xmlns="http://www.w3.org/2000/svg"
 width="317.000000pt" height="323.000000pt" viewBox="0 0 317.000000 323.000000"
 preserveAspectRatio="xMidYMid meet">

<g transform="translate(0.000000,323.000000) scale(0.100000,-0.100000)"
fill="#000000" stroke="none">
<path d="M1470 3189 c-159 -11 -433 -81 -474 -120 -6 -5 -17 -9 -25 -9 -23 0
-209 -108 -289 -170 -127 -95 -140 -106 -194 -163 -63 -66 -178 -204 -178
-213 0 -4 -17 -32 -39 -63 -147 -216 -239 -544 -238 -856 0 -106 24 -288 52
-395 49 -186 164 -418 280 -561 369 -455 898 -676 1440 -600 55 8 118 20 140
28 22 8 63 21 91 28 28 8 76 26 107 40 31 14 62 25 69 25 8 0 18 4 23 9 6 5
39 24 75 42 75 38 196 114 205 129 4 6 23 21 43 34 37 23 165 150 239 236 142
165 253 384 312 615 93 367 54 735 -114 1086 -45 94 -147 251 -201 309 -58 62
-172 177 -195 195 -113 93 -155 123 -241 171 -139 78 -320 150 -425 169 -48 9
-108 20 -133 25 -65 13 -220 17 -330 9z m295 -54 c61 -7 142 -23 180 -35 39
-11 95 -27 125 -36 169 -50 448 -224 593 -371 12 -13 110 -127 136 -159 110
-136 208 -341 267 -559 25 -91 28 -119 32 -320 4 -242 -2 -306 -47 -455 -44
-146 -65 -197 -125 -310 -85 -158 -185 -285 -320 -409 -102 -93 -178 -151
-252 -191 -33 -18 -64 -36 -70 -41 -18 -15 -157 -71 -224 -90 -35 -10 -91 -28
-125 -40 -136 -47 -381 -63 -545 -34 -111 19 -280 70 -390 117 -79 34 -204
105 -250 142 -21 17 -59 46 -84 65 -25 18 -63 50 -84 70 -22 20 -48 44 -58 53
-19 16 -80 89 -154 182 -21 26 -63 94 -93 150 -246 450 -258 986 -34 1435 59
117 70 136 137 226 67 91 255 285 276 285 6 0 19 9 29 20 62 68 372 231 479
251 28 5 74 17 101 26 121 40 324 51 500 28z"/>
<path d="M1465 3020 c-63 -7 -151 -24 -245 -49 -221 -58 -426 -180 -614 -367
-103 -103 -149 -160 -201 -249 -17 -27 -35 -59 -42 -70 -54 -90 -126 -300
-148 -437 -27 -171 -18 -409 24 -593 23 -103 96 -275 150 -355 17 -25 31 -49
31 -55 0 -5 14 -26 31 -45 16 -19 36 -47 44 -61 38 -70 313 -307 420 -361 40
-20 108 -58 120 -68 25 -20 269 -89 350 -100 125 -16 333 -14 440 5 173 30
375 112 512 206 23 16 44 29 48 29 13 0 100 76 194 170 102 101 148 156 179
211 10 19 35 59 54 89 59 92 101 201 154 395 21 79 31 401 15 505 -29 190
-110 400 -219 566 -104 158 -262 313 -423 414 -30 19 -64 41 -75 47 -40 26
-152 76 -229 103 -172 60 -408 89 -570 70z m264 -50 c46 -6 120 -20 165 -31
45 -11 99 -25 120 -30 52 -13 252 -113 296 -148 19 -15 50 -36 68 -45 47 -24
270 -248 320 -321 23 -33 73 -123 111 -200 54 -108 75 -166 96 -253 112 -482
-17 -943 -360 -1288 -150 -151 -294 -246 -499 -328 -101 -41 -113 -43 -120
-18 -21 70 -40 200 -41 269 0 77 2 84 28 110 38 39 80 35 212 -23 85 -37 122
-47 165 -48 101 -1 153 52 149 151 -3 56 -2 58 37 86 67 48 78 88 43 146 -35
58 -11 127 51 140 42 8 72 48 72 95 0 28 -12 55 -48 108 -27 39 -60 88 -74
108 -14 20 -33 45 -43 54 -16 17 -14 20 39 68 72 66 96 113 95 190 0 74 -30
129 -100 185 l-49 39 20 27 c34 46 60 137 54 182 -17 108 -92 165 -228 173
l-80 5 6 61 c13 119 -24 215 -97 253 -19 9 -55 16 -88 16 -59 0 -100 -18 -164
-75 l-32 -27 -39 71 c-21 39 -51 84 -66 99 -35 35 -93 45 -141 26 -34 -15 -86
-78 -107 -131 -5 -14 -15 -38 -20 -52 l-10 -26 -57 52 c-115 102 -192 94 -279
-31 -25 -37 -44 -119 -44 -196 l0 -43 -63 0 c-206 0 -305 -140 -212 -301 14
-24 25 -51 24 -59 0 -8 -22 -26 -50 -40 -56 -27 -98 -70 -130 -132 -16 -32
-20 -54 -17 -98 6 -82 48 -144 137 -201 l69 -44 -28 -50 c-63 -113 -64 -188
-4 -255 48 -52 115 -75 204 -67 l67 6 6 -77 c10 -119 36 -176 99 -222 72 -52
137 -39 229 47 l48 45 33 -67 c42 -87 105 -145 158 -145 53 0 123 64 162 147
l29 63 35 -27 c19 -16 41 -38 49 -50 9 -13 29 -30 47 -39 41 -21 88 -8 146 42
52 44 77 90 91 169 13 69 16 74 67 86 38 8 184 13 184 5 0 -2 -7 -23 -15 -46
-19 -53 -20 -45 11 -74 40 -36 27 -68 -42 -107 -50 -29 -55 -35 -50 -58 19
-82 19 -97 -7 -127 -38 -44 -108 -39 -224 16 -113 54 -202 65 -246 30 -41 -33
-67 -91 -67 -152 0 -29 12 -111 26 -181 14 -71 24 -130 22 -133 -3 -2 -52 -11
-109 -20 -234 -36 -502 6 -729 115 -153 73 -216 115 -335 223 -265 239 -396
492 -452 870 -15 103 -16 132 -4 245 13 141 46 293 84 393 33 88 100 220 130
256 13 16 32 43 40 61 21 41 247 267 288 288 17 9 52 32 77 52 59 45 248 136
327 157 234 62 370 76 534 56z m-24 -235 c38 -39 90 -127 100 -166 6 -22 -6
-45 -66 -133 -39 -58 -75 -106 -78 -106 -4 0 -39 50 -80 111 l-73 110 23 56
c21 53 79 139 103 155 21 14 39 8 71 -27z m-371 -96 c23 -12 58 -41 79 -64
l38 -43 -26 -84 c-40 -123 -43 -130 -63 -124 -9 2 -51 10 -92 16 -124 19 -118
16 -125 59 -18 109 56 260 129 261 10 0 37 -10 60 -21z m742 3 c-3 -4 -7 -28
-10 -52 -3 -24 -12 -48 -21 -52 -17 -10 -20 -34 -5 -43 18 -11 119 54 126 81
10 39 22 28 29 -29 5 -35 2 -72 -9 -111 -15 -61 -27 -76 -60 -76 -10 0 -57 -9
-103 -21 -47 -11 -88 -18 -90 -15 -7 7 -53 184 -53 205 0 20 62 82 105 104 31
17 100 23 91 9z m-492 -300 l56 -94 -32 7 c-18 4 -62 17 -98 29 -63 20 -65 22
-64 53 1 18 10 57 19 88 l18 55 22 -23 c12 -12 48 -64 79 -115z m276 72 c31
-102 30 -108 -37 -132 -94 -34 -102 -35 -109 -17 -4 9 -1 28 5 43 22 47 102
172 111 172 5 0 18 -30 30 -66z m-752 -99 c6 -3 12 -17 12 -32 0 -15 9 -65 19
-111 11 -48 15 -85 10 -88 -5 -3 -62 -16 -126 -29 -133 -27 -122 -31 -169 62
-21 42 -25 60 -19 92 8 50 58 97 112 106 21 4 43 8 48 10 11 4 91 -4 113 -10z
m1243 5 c43 -8 61 -18 92 -50 33 -35 37 -45 37 -92 0 -59 -47 -165 -71 -161
-8 1 -54 15 -104 32 -49 17 -103 33 -119 36 -23 5 -27 10 -23 28 4 20 44 175
53 205 4 15 61 16 135 2z m-197 -52 c-4 -29 -14 -80 -23 -113 l-16 -60 -80 0
-80 0 -6 73 c-4 40 -9 79 -12 87 -6 14 53 36 148 55 78 15 76 16 69 -42z
m-866 23 c46 -11 86 -22 89 -24 7 -7 -24 -158 -34 -168 -4 -4 -37 -9 -72 -11
l-64 -3 -12 50 c-23 92 -29 157 -14 166 18 11 10 12 107 -10z m249 -65 c32
-12 58 -27 58 -32 0 -5 -13 -26 -30 -45 -28 -34 -35 -37 -103 -42 l-73 -6 6
32 c3 18 11 54 18 80 10 45 12 47 39 42 15 -4 54 -17 85 -29z m362 -73 l1 -63
-45 0 c-36 0 -47 4 -56 23 -7 12 -25 38 -42 57 -16 18 -26 35 -21 37 5 2 41
14 79 28 l70 24 7 -22 c3 -12 6 -50 7 -84z m-181 -15 c17 -23 30 -43 28 -46
-3 -2 -39 -1 -81 3 l-76 7 38 39 c21 21 43 39 48 39 6 0 25 -19 43 -42z m-238
-109 c-14 -10 -36 -22 -50 -25 -14 -4 -31 -11 -38 -17 -17 -14 -20 -7 -15 30
5 31 7 32 62 35 31 2 58 2 61 0 3 -2 -6 -12 -20 -23z m320 -9 c25 -49 25 -53
1 -40 -11 5 -30 10 -43 10 -13 0 -43 3 -68 6 -25 3 -70 1 -100 -4 -71 -13 -82
-2 -27 26 52 26 128 29 171 7 52 -27 79 -12 34 19 -18 13 -19 16 -5 16 9 0 25
-17 37 -40z m-463 16 c-3 -8 -9 -31 -13 -51 -6 -32 -27 -55 -52 -55 -4 0 -19
23 -32 51 -27 61 -21 69 54 69 38 0 47 -3 43 -14z m573 5 c0 -5 -3 -22 -6 -40
l-6 -31 -29 37 c-16 19 -29 37 -29 39 0 2 16 4 35 4 19 0 35 -4 35 -9z m180 0
c0 -5 -9 -30 -20 -56 -17 -40 -23 -46 -42 -39 -57 17 -78 34 -78 63 0 15 3 31
7 34 10 11 133 8 133 -2z m186 -30 c38 -11 78 -27 89 -35 19 -14 19 -15 -10
-44 -17 -16 -50 -52 -74 -81 -24 -28 -48 -51 -52 -51 -5 0 -32 22 -61 50 -29
27 -56 50 -60 50 -14 0 -8 37 14 90 25 60 25 60 154 21z m-1075 -46 c31 -75
29 -82 -50 -138 l-49 -35 -82 89 c-49 53 -79 94 -74 99 10 10 165 47 204 49
22 1 28 -8 51 -64z m269 5 c0 -5 -18 -21 -39 -36 -28 -18 -41 -35 -45 -58 -4
-18 -13 -41 -21 -52 -15 -19 -15 -18 -35 5 -34 39 -26 56 53 105 75 48 87 53
87 36z m-543 -57 c21 -27 63 -74 94 -105 l56 -57 -66 -68 c-36 -37 -80 -86
-97 -107 l-30 -40 -61 38 c-110 68 -137 115 -122 214 4 33 17 54 50 88 42 44
101 83 126 84 6 0 29 -21 50 -47z m818 36 c36 -9 52 -22 86 -65 47 -61 60
-124 40 -186 -23 -71 -127 -138 -214 -138 -42 0 -134 38 -159 66 -55 63 -63
163 -19 240 27 47 50 65 111 87 26 10 110 7 155 -4z m258 -36 c27 -13 27 -14
12 -51 -28 -67 -39 -70 -69 -20 -25 44 -33 78 -19 91 8 8 36 1 76 -20z m488
-15 c48 -49 69 -93 69 -142 0 -53 -15 -82 -71 -138 l-51 -51 -84 89 c-46 49
-83 95 -81 102 3 19 150 181 165 182 6 0 31 -19 53 -42z m-356 -85 l57 -57
-55 -53 c-30 -29 -59 -53 -64 -53 -4 0 -18 20 -29 43 l-21 44 21 66 c11 37 24
67 27 67 4 0 33 -26 64 -57z m-853 -7 c19 -39 20 -50 10 -83 -6 -21 -18 -47
-26 -58 -14 -19 -16 -18 -65 30 -28 27 -51 52 -51 55 0 10 90 100 100 100 6 0
20 -20 32 -44z m668 -65 c0 -6 -4 -13 -10 -16 -5 -3 -10 1 -10 9 0 9 5 16 10
16 6 0 10 -4 10 -9z m405 -213 c-43 -22 -204 -53 -215 -41 -5 4 -18 31 -30 60
l-22 52 33 28 c19 15 50 42 69 60 l35 32 84 -86 83 -87 -37 -18z m-1208 152
c18 -16 37 -30 41 -30 4 0 15 -11 24 -24 16 -23 16 -27 -5 -82 -27 -69 -38
-73 -157 -54 -78 13 -110 24 -110 40 0 10 159 180 168 180 2 0 20 -13 39 -30z
m858 -20 c12 -27 15 -44 8 -51 -7 -7 -109 -49 -121 -49 -10 0 79 139 89 140 3
0 14 -18 24 -40z m-613 -28 c20 -31 33 -61 28 -66 -12 -12 -110 44 -110 63 0
18 27 61 38 61 4 0 24 -26 44 -58z m-95 -60 c13 -8 46 -92 39 -99 -2 -2 -28
-3 -59 -1 l-54 3 24 53 c26 54 30 57 50 44z m774 -49 c11 -25 16 -50 12 -54
-4 -4 -33 -9 -63 -11 l-55 -3 -3 40 c-2 36 1 41 30 56 50 25 57 23 79 -28z
m-282 -27 l-23 -46 -97 0 -97 0 -25 43 c-14 23 -24 43 -23 45 2 1 18 -6 37
-15 49 -25 153 -24 204 2 22 12 42 20 44 19 1 -2 -7 -23 -20 -48z m-349 16
c22 -2 42 -13 53 -28 l18 -24 -66 0 c-57 0 -65 2 -65 19 0 11 -3 27 -7 37 -5
14 -3 16 13 9 10 -4 35 -10 54 -13z m470 -32 c0 -28 -2 -30 -40 -30 -50 0 -55
25 -7 45 45 20 47 19 47 -15z m534 -14 c7 -18 27 -48 43 -67 98 -115 129 -200
76 -207 -13 -2 -28 -11 -35 -21 -11 -15 -33 -19 -133 -24 -66 -3 -129 -7 -139
-9 -16 -2 -22 6 -33 47 -7 28 -25 92 -39 143 -14 52 -24 96 -21 98 2 2 38 13
80 24 42 11 98 29 124 39 27 10 51 17 56 14 4 -2 13 -19 21 -37z m-1387 -25
c51 -10 95 -20 99 -24 3 -3 -3 -34 -14 -69 -11 -35 -23 -83 -27 -108 -9 -65
-16 -70 -109 -70 -65 0 -88 4 -116 21 -50 31 -59 48 -60 105 0 43 6 61 40 113
38 58 43 62 68 56 15 -4 69 -15 119 -24z m287 -36 c8 -8 18 -37 21 -63 3 -26
9 -59 11 -74 7 -34 -6 -41 -112 -62 -102 -20 -104 -20 -104 5 0 18 33 161 45
197 7 18 119 16 139 -3z m780 -27 c13 -35 36 -149 36 -180 0 -5 -10 -8 -22 -8
-32 0 -182 31 -191 40 -5 4 -4 33 3 64 6 30 13 68 14 83 3 25 8 29 47 34 95
13 96 13 113 -33z m-576 10 c6 -6 12 -16 12 -23 0 -7 9 -23 19 -36 l19 -24
-87 -32 c-47 -18 -87 -33 -87 -33 -1 0 -11 50 -23 117 -4 24 -5 45 -2 48 8 9
134 -6 149 -17z m372 -9 c0 -28 -19 -119 -26 -128 -3 -3 -140 38 -153 46 -8 5
22 63 45 88 19 21 32 25 79 25 55 0 55 0 55 -31z m-266 9 c5 -10 7 -10 12 0 3
6 17 12 30 12 33 0 30 -19 -10 -58 l-33 -33 -25 33 c-42 56 -42 58 -9 58 16 0
32 -6 35 -12z m-34 -132 c0 -8 -20 -52 -45 -98 -44 -83 -79 -127 -91 -115 -12
12 -45 150 -37 157 4 4 26 13 48 20 22 7 56 21 75 31 42 23 50 23 50 5z m154
-15 c3 -4 27 -14 53 -21 27 -7 51 -16 55 -19 7 -6 -35 -157 -46 -168 -5 -6
-81 109 -105 160 -18 38 -21 50 -11 62 12 15 41 7 54 -14z m-35 -157 c39 -58
71 -112 71 -121 0 -8 -20 -52 -45 -97 -44 -81 -71 -106 -114 -106 -26 0 -76
60 -113 134 l-30 62 23 36 c13 21 47 73 74 117 28 44 53 80 56 81 3 0 38 -47
78 -106z m-320 -5 l34 -100 -53 -54 c-63 -64 -96 -80 -145 -71 -29 6 -42 17
-65 53 -32 50 -53 132 -48 189 3 32 7 39 33 46 34 9 172 36 195 37 11 1 26
-30 49 -100z m613 81 c46 -11 98 -20 116 -20 31 0 32 -1 32 -43 0 -58 -26
-145 -57 -185 -13 -18 -42 -41 -64 -53 -39 -20 -41 -20 -69 -2 -15 10 -47 42
-71 71 l-42 54 18 76 c19 84 34 122 46 122 4 0 45 -9 91 -20z"/>
<path d="M923 2140 c-29 -12 -29 -16 2 -36 23 -15 27 -15 51 1 20 13 23 19 13
31 -13 16 -33 17 -66 4z"/>
<path d="M927 1353 c-13 -12 -7 -40 12 -57 36 -33 83 18 49 52 -13 13 -50 16
-61 5z m47 -12 c3 -5 -3 -11 -14 -14 -20 -5 -26 3 -13 16 9 10 21 9 27 -2z"/>
<path d="M1970 995 c-13 -35 -13 -72 1 -81 18 -11 32 13 33 57 1 49 -19 63
-34 24z"/>
</g>
</svg>
